<svg id="Capa_1" data-name="Capa 1" xmlns="http://www.w3.org/2000/svg" viewBox="0 0 627.52 174.64"><defs><style>.cls-1{fill:#fff;}</style></defs><path class="cls-1" d="M419.07,145.74h-5.81V168h3.9V150.21l7,15.34h4.32l7.05-15.34V168h3.9V145.74h-5.81l-7.3,16Zm-60.35,0h-4v12.09c0,6.19,2.35,10.54,10.19,10.54S375,163.9,375,157.83V145.74h-4v12.09c0,5-1.75,6.73-6.13,6.73s-6.16-1.84-6.16-6.73Zm-51.68,0H303.1V168h16.48v-3.68H307Zm-58.47,0h-4v12.09c0,6.19,2.35,10.54,10.19,10.54s10.16-4.47,10.16-10.54V145.74h-4v12.09c0,5-1.74,6.73-6.13,6.73s-6.15-1.84-6.15-6.73Zm-40,0h-20v3.68h8V168h3.93V149.42h8.07ZM263.19,83c-1.17,2.73-5.27,9.18-12.49,14.64s-8.2,3.32-8.4.2,5.66-11.13,9-14.84,5.67-6.44,8.59-6a4.54,4.54,0,0,1,3.32,6m61.49,14.25c-5.27,1.76-18.93,8-30.06,9.18-11.75,1.23-20.11-3.71-21.47-10.55s2.93-15.22,3.51-17-2.54-4.29-3.51-4.1-1.95-.19-1.95-1-.2-4.3-2.93-5.47-8.59-1.17-15.62,4.29-16.59,20.5-18.15,22.26c-2.21,2.48-21.09,10.73-34.95,12.3s-14.25-6.64-13.08-13.08,2.54-9.76,3.32-16-2.34-8.2-5.66-7.61S170.81,77.78,157,88.71s-22.47,17.2-25.79,19.35-2.73-.59-1.36-4.1S140,78.88,143.14,71.31c4.49-10.74,6.05-19.91,1.36-23.62-5.76-4.56-16.45-1.72-33.57,4.1-20.11,6.83-21.77,3.72-24.4,6.63-3.71,4.1,1,8.4,4.88,7.81s33.38-11.13,40.8-12.88,6.83,3.9,5.46,9.37-15.81,37.67-19.91,48.8,5.47,12.49,9.17,10.15,47.2-36.56,50.37-37.28c4.29-1-1.76,10.73-.59,19.32s11.52,13.86,24.41,11.32,28.49-8.58,30.64-9.37,2.93,2.15,3.91,3.13,3.71,3.32,9.17,1.75,16.2-11.9,17.77-12.88,1.27,2,4.29,6.83c3.32,5.27,10.37,10.72,21.86,10,11.72-.78,33.39-8,39.05-10.15s6.74-4.51,5.66-6.83c-1.37-2.93-3.52-2-8.79-.2m293.19,7c-3.71-2.73-10.93-2.73-22.45-2.14s-26.35,3.71-49.38,5.27-45.1,3.51-57.79,1S476.17,98.52,476,94.61s1.76-7.61-2-9.76-4.1-1.75-6.64,0-11.91,9.37-24,14.45-17.37,6.64-15-2,6.64-15.42,7.81-18,.58-2.54-.2-4.69-2.73-3.51-5.66-2.15S412.92,81,401,85.83s-29.95,12.36-31.12,12.55.52-1.15,1.88-2.33c.87-.74,12.84-12.17,15.77-19.2s-1.37-16.2-11.91-16.59-24.79,4.29-30.84,8.39c-5.43,3.68-7.81,6.64-7.81,5.08s5.34-19,10.35-30.07C353,31.17,362,18.29,364,15.55s-1-6.05-3-6.63-3.51,1.07-5.27,3.61-11.25,16.76-17,32.11C329,70.8,327.11,82.84,327.89,84.79c.46,1.15,3.62,2.8,5.19,2.6s3.32-2.38,7-5.27c6.25-4.88,20.31-13.27,29.48-13.66s12.3,2,7.42,9.17-11.32,14.84-23.82,22.64-13.27,8.59-12.88,11.13,4.49,3.52,6.83,2.93,39.24-13.86,49.59-18.15,22.25-9.57,24-10.35,3.71-1.56,2.53,1S418,99,418.19,103.59c.19,5.47,5.88,11.47,17.76,7.23a171.74,171.74,0,0,0,27.14-12.89c1.75-1,3.49-2.25,3.61.49.19,4.69,1.45,16.91,21.55,18.38,21.33,1.55,99.56-7.23,110.3-6.84s16.2,2.93,18.15,2.35,4.88-5.27,1.17-8"/></svg>